<svg width="72" height="102" viewBox="0 0 72 102" fill="none" xmlns="http://www.w3.org/2000/svg">
<mask id="mask0" mask-type="alpha" maskUnits="userSpaceOnUse" x="4" y="4" width="64" height="96">
<path fill-rule="evenodd" clip-rule="evenodd" d="M67.925 57.1896L35.7688 4L3.99991 57.1895L26.527 57.1895L26.527 100H45.8982L45.8982 57.1895L67.925 57.1896Z" fill="#C4C4C4"/>
</mask>
<g mask="url(#mask0)">
<rect width="64" height="1" transform="matrix(1 0 0 -1 4 100)" fill="#E83539"/>
</g>
<path d="M35.8061 4L37.5176 2.96528L35.7957 0.117051L34.0891 2.97445L35.8061 4ZM67.9624 57.1896V59.1896H71.5086L69.6739 56.1548L67.9624 57.1896ZM4.03727 57.1895L2.32022 56.164L0.513131 59.1895H4.03727L4.03727 57.1895ZM26.5644 57.1895H28.5644V55.1895H26.5644V57.1895ZM26.5643 100H24.5643V102H26.5643V100ZM45.9356 100V102H47.9356V100H45.9356ZM45.9356 57.1895V55.1895H43.9356V57.1895H45.9356ZM34.0946 5.03472L66.2509 58.2243L69.6739 56.1548L37.5176 2.96528L34.0946 5.03472ZM5.75431 58.2151L37.5232 5.02555L34.0891 2.97445L2.32022 56.164L5.75431 58.2151ZM26.5644 55.1895L4.03727 55.1895L4.03727 59.1895L26.5644 59.1895V55.1895ZM28.5643 100L28.5644 57.1895H24.5644L24.5643 100H28.5643ZM45.9356 98H26.5643V102H45.9356V98ZM43.9356 57.1895L43.9356 100H47.9356L47.9356 57.1895H43.9356ZM67.9624 55.1896L45.9356 55.1895V59.1895L67.9624 59.1896V55.1896Z" fill="#E83539"/>
</svg>
